HIERARCHY
ROOT Hips
{
	OFFSET 0.00 0.00 0.00
	CHANNELS 6 Xposition Yposition Zposition Xrotation Yrotation Zrotation
	JOINT Spine
	{
		OFFSET 0.00000 4.35446 0.00000
		CHANNELS 3 Xrotation Yrotation Zrotation
		JOINT Head
		{
			OFFSET 0.00000 16.58177 0.00000
			CHANNELS 3 Xrotation Yrotation Zrotation
			End Site
			{
				OFFSET 0.00000 4.52755 0.00000
			}
		}
		JOINT LeftShoulder
		{
			OFFSET 0.00000 12.90370 0.00000
			CHANNELS 3 Xrotation Yrotation Zrotation
			JOINT LeftArm
			{
				OFFSET 6.94203 0.00000 0.00000
				CHANNELS 3 Xrotation Yrotation Zrotation
				JOINT LeftForeArm
				{
					OFFSET 11.01039 0.00000 0.00000
					CHANNELS 3 Yrotation Zrotation Xrotation
					JOINT LeftHand
					{
						OFFSET 8.05499 0.00000 0.00000
						CHANNELS 3 Xrotation Yrotation Zrotation
						JOINT LeftHandThumb1
						{
							OFFSET 0.00000 0.00000 0.00000
							CHANNELS 3 Xrotation Zrotation Yrotation
							End Site
							{
								OFFSET 0.00000 0.00000 3.93700
							}
						}
						End Site
						{
							OFFSET 3.93700 0.00000 0.00000
						}
					}
				}
			}
		}
		JOINT RightShoulder
		{
			OFFSET 0.00000 12.90370 0.00000
			CHANNELS 3 Xrotation Yrotation Zrotation
			JOINT RightArm
			{
				OFFSET -6.94203 0.00000 0.00000
				CHANNELS 3 Xrotation Yrotation Zrotation
				JOINT RightForeArm
				{
					OFFSET -11.01039 0.00000 0.00000
					CHANNELS 3 Yrotation Zrotation Xrotation
					JOINT RightHand
					{
						OFFSET -8.05499 0.00000 0.00000
						CHANNELS 3 Xrotation Yrotation Zrotation
						JOINT RightHandThumb1
						{
							OFFSET 0.00000 0.00000 0.00000
							CHANNELS 3 Xrotation Zrotation Yrotation
							End Site
							{
								OFFSET 0.00000 0.00000 3.93700
							}
						}
						End Site
						{
							OFFSET -3.93700 0.00000 0.00000
						}
					}
				}
			}
		}
	}
	JOINT LeftUpLeg
	{
		OFFSET 4.29108 0.00000 0.00000
		CHANNELS 3 Xrotation Yrotation Zrotation
		JOINT LeftLeg
		{
			OFFSET 0.00000 -17.03996 0.00000
			CHANNELS 3 Xrotation Yrotation Zrotation
			JOINT LeftFoot
			{
				OFFSET 0.00000 -16.93974 0.00000
				CHANNELS 3 Xrotation Yrotation Zrotation
				JOINT LeftToeBase
				{
					OFFSET 0.00000 -1.35493 5.05666
					CHANNELS 3 Xrotation Yrotation Zrotation
					End Site
					{
						OFFSET 0.00000 0.00000 2.95275
					}
				}
			}
		}
	}
	JOINT RightUpLeg
	{
		OFFSET -4.29108 0.00000 0.00000
		CHANNELS 3 Xrotation Yrotation Zrotation
		JOINT RightLeg
		{
			OFFSET 0.00000 -17.03996 0.00000
			CHANNELS 3 Xrotation Yrotation Zrotation
			JOINT RightFoot
			{
				OFFSET 0.00000 -16.93974 0.00000
				CHANNELS 3 Xrotation Yrotation Zrotation
				JOINT RightToeBase
				{
					OFFSET 0.00000 -1.35493 5.05666
					CHANNELS 3 Xrotation Yrotation Zrotation
					End Site
					{
						OFFSET 0.00000 0.00000 2.95275
					}
				}
			}
		}
	}
}
MOTION
Frames: 13
Frame Time: 0.008333
 -6.0318 35.4333 -12.0907 3.7171 -4.5378 0.0851 -6.3487 6.9766 -0.6224 3.7348 -3.2726 14.3294 6.4621 7.0077 12.1251 -53.9598 -13.8634 -11.5877 1.3758 0.0000 20.2933 0.0596 3.4207 -0.9987 33.1476 -0.0000 26.2537 -7.5231 -18.5316 -16.2818 -34.9061 -0.9800 12.1891 12.5697 -0.0000 48.1852 0.4608 -1.6363 15.7291 32.8623 0.0000 -24.3270 5.0676 16.0898 -1.0232 -5.0597 -0.0000 -0.0000 -14.9342 23.3584 -3.2313 20.9436 0.0000 0.0000 2.8328 -11.2354 -0.6444 -4.1101 -0.0000 0.0000 -13.7149 -24.7511 -4.8105 21.0473 -0.0000 0.0000
 -6.0303 35.4334 -12.0918 3.7044 -4.5257 0.0823 -6.3184 6.9616 -0.6311 3.7131 -3.2733 14.3107 6.4863 7.0174 12.0990 -53.9613 -13.8433 -11.5971 1.3713 0.0000 20.3460 0.0557 3.4141 -0.9345 33.1476 -0.0000 26.2537 -7.5390 -18.5131 -16.2863 -34.9319 -0.9781 12.1998 12.5557 -0.0000 48.2005 0.4547 -1.6298 15.5904 32.8623 0.0000 -24.3270 5.0656 16.0619 -1.0172 -5.0377 0.0000 -0.0000 -14.9489 23.3630 -3.2314 20.9033 -0.0000 -0.0000 2.8456 -11.2517 -0.6442 -4.1114 -0.0000 -0.0000 -13.7079 -24.7405 -4.8168 21.0557 0.0000 -0.0000
 -6.0284 35.4334 -12.0932 3.6985 -4.5131 0.0840 -6.2914 6.9529 -0.6428 3.6835 -3.2770 14.2965 6.4798 7.0248 12.0824 -53.9126 -13.8367 -11.6100 1.3911 0.0000 20.3844 0.0495 3.3586 -0.8440 33.1476 -0.0000 26.2537 -7.5499 -18.5062 -16.2969 -34.9778 -0.9910 12.2186 12.5608 -0.0000 48.1945 0.4564 -1.6370 15.5802 32.8623 0.0000 -24.3270 5.0576 16.0189 -1.0157 -5.0176 -0.0000 -0.0000 -14.9652 23.3915 -3.2215 20.9074 0.0000 -0.0000 2.8529 -11.2458 -0.6493 -4.1166 0.0000 0.0000 -13.7164 -24.7611 -4.8454 21.0934 0.0000 0.0000
 -6.0267 35.4335 -12.0946 3.6875 -4.5025 0.0834 -6.2581 6.9454 -0.6514 3.6467 -3.2848 14.2792 6.4949 7.0513 12.0618 -53.8505 -13.8458 -11.6320 1.4015 0.0000 20.4217 0.0425 3.3294 -0.7325 33.1476 -0.0000 26.2537 -7.5798 -18.4803 -16.3068 -35.0042 -1.0101 12.2192 12.5481 -0.0000 48.1626 0.4410 -1.5899 15.5064 32.8623 0.0000 -24.3270 5.0598 15.9993 -1.0149 -5.0094 -0.0000 -0.0000 -14.9722 23.3790 -3.2018 20.9113 -0.0000 0.0000 2.8623 -11.2587 -0.6522 -4.1166 -0.0000 -0.0000 -13.7148 -24.7542 -4.8369 21.1028 -0.0000 0.0000
 -6.0244 35.4335 -12.0958 3.6842 -4.5003 0.0839 -6.2324 6.9390 -0.6599 3.6094 -3.2916 14.2574 6.5095 7.0863 12.0428 -53.7798 -13.8464 -11.6522 1.3696 0.0000 20.4754 0.0416 3.3892 -0.7045 33.1476 -0.0000 26.2537 -7.5769 -18.4682 -16.3089 -35.0594 -1.0162 12.2359 12.5374 -0.0000 48.1229 0.4488 -1.6192 15.4932 32.8623 0.0000 -24.3270 5.0623 15.9977 -1.0191 -5.0111 -0.0000 -0.0000 -14.9624 23.3621 -3.2213 20.8964 0.0000 0.0000 2.8616 -11.2647 -0.6551 -4.1179 0.0000 0.0000 -13.7056 -24.7616 -4.8369 21.0821 -0.0000 -0.0000
 -6.0220 35.4333 -12.0957 3.6869 -4.4954 0.0827 -6.2098 6.9601 -0.6614 3.5455 -3.3267 14.2311 6.4963 7.1054 12.0059 -53.7145 -13.8722 -11.6757 1.3363 0.0000 20.4956 0.0421 3.4555 -0.6982 33.1476 -0.0000 26.2537 -7.6115 -18.4860 -16.3384 -35.0581 -1.0371 12.2562 12.5671 -0.0000 48.0775 0.4573 -1.6510 15.4853 32.8623 0.0000 -24.3270 5.0685 15.9729 -1.0230 -5.0223 -0.0000 0.0000 -14.9650 23.4000 -3.2053 20.9051 -0.0000 -0.0000 2.8551 -11.2797 -0.6570 -4.1115 -0.0000 -0.0000 -13.7026 -24.7613 -4.8104 21.0600 0.0000 -0.0000
 -6.0192 35.4333 -12.0966 3.6843 -4.4954 0.0828 -6.1883 6.9705 -0.6645 3.5144 -3.3451 14.2064 6.5270 7.1244 11.9610 -53.6629 -13.9097 -11.6741 1.3507 0.0000 20.5068 0.0400 3.4763 -0.6598 33.1476 -0.0000 26.2537 -7.6349 -18.4783 -16.3595 -35.0829 -1.0506 12.2723 12.5487 -0.0000 48.0625 0.4520 -1.6338 15.4667 32.8623 0.0000 -24.3270 5.0736 15.9618 -1.0286 -5.0291 0.0000 0.0000 -14.9598 23.4141 -3.1959 20.8696 -0.0000 0.0000 2.8525 -11.2874 -0.6625 -4.1057 0.0000 -0.0000 -13.7140 -24.7402 -4.8508 21.1135 -0.0000 0.0000
 -6.0171 35.4333 -12.0974 3.6784 -4.4891 0.0803 -6.1598 6.9782 -0.6637 3.4694 -3.3586 14.1667 6.5296 7.1375 11.9209 -53.6386 -13.9145 -11.6930 1.3336 0.0000 20.5744 0.0353 3.4944 -0.5787 33.1476 -0.0000 26.2537 -7.6339 -18.4815 -16.3777 -35.1254 -1.0663 12.2889 12.5324 -0.0000 48.0516 0.4452 -1.6083 15.4745 32.8623 0.0000 -24.3270 5.0810 15.9430 -1.0298 -5.0386 0.0000 0.0000 -14.9629 23.4329 -3.2006 20.8939 -0.0000 0.0000 2.8514 -11.2930 -0.6646 -4.0964 -0.0000 -0.0000 -13.7145 -24.7451 -4.8485 21.1116 0.0000 -0.0000
 -6.0151 35.4333 -12.0983 3.6763 -4.4874 0.0791 -6.1386 6.9929 -0.6647 3.4371 -3.3842 14.1293 6.5160 7.1438 11.8987 -53.6429 -13.8964 -11.7298 1.3258 0.0000 20.6090 0.0318 3.4871 -0.5236 33.1476 -0.0000 26.2537 -7.6496 -18.4730 -16.3981 -35.1400 -1.0893 12.2990 12.5191 -0.0000 48.0627 0.4427 -1.5995 15.4727 32.8623 0.0000 -24.3270 5.0857 15.9528 -1.0348 -5.0427 0.0000 -0.0000 -14.9620 23.4159 -3.1934 20.9044 -0.0000 -0.0000 2.8502 -11.2997 -0.6640 -4.0951 0.0000 0.0000 -13.7076 -24.7471 -4.8472 21.0649 0.0000 -0.0000
 -6.0126 35.4335 -12.0993 3.6789 -4.4815 0.0791 -6.1222 6.9996 -0.6661 3.4007 -3.3913 14.0905 6.5086 7.1527 11.8745 -53.6179 -13.8907 -11.7530 1.3281 0.0000 20.5564 0.0286 3.5278 -0.4647 33.1476 -0.0000 26.2537 -7.6400 -18.4696 -16.4085 -35.1774 -1.1037 12.3086 12.5027 -0.0000 48.0856 0.4491 -1.6222 15.4777 32.8623 0.0000 -24.3270 5.0862 15.9287 -1.0370 -5.0527 -0.0000 -0.0000 -14.9460 23.4163 -3.1822 20.9000 0.0000 -0.0000 2.8431 -11.3075 -0.6691 -4.0892 -0.0000 0.0000 -13.7072 -24.7346 -4.8524 21.1030 -0.0000 -0.0000
 -6.0103 35.4337 -12.1008 3.6779 -4.4739 0.0760 -6.1017 7.0360 -0.6601 3.3689 -3.4550 14.0351 6.5104 7.1302 11.8476 -53.6344 -13.8841 -11.7767 1.3522 0.0000 20.4908 0.0288 3.4645 -0.4768 33.1476 -0.0000 26.2537 -7.6639 -18.4813 -16.4363 -35.1821 -1.1365 12.3103 12.5049 -0.0000 48.0672 0.4533 -1.6277 15.5644 32.8623 0.0000 -24.3270 5.0820 15.9427 -1.0390 -5.0500 -0.0000 0.0000 -14.9498 23.4105 -3.1806 20.8773 -0.0000 -0.0000 2.8355 -11.3315 -0.6687 -4.0803 -0.0000 0.0000 -13.7094 -24.7340 -4.8514 21.1155 -0.0000 0.0000
 -6.0080 35.4338 -12.1017 3.6786 -4.4700 0.0704 -6.0955 7.0501 -0.6497 3.3678 -3.4533 13.9744 6.5093 7.1303 11.8268 -53.6463 -13.8682 -11.8174 1.3681 0.0000 20.4596 0.0301 3.4442 -0.5017 33.1476 -0.0000 26.2537 -7.6780 -18.4511 -16.4635 -35.1846 -1.1797 12.3070 12.5038 -0.0000 48.0794 0.4523 -1.6229 15.5742 32.8623 0.0000 -24.3270 5.0877 15.9300 -1.0390 -5.0670 0.0000 -0.0000 -14.9502 23.4164 -3.1725 20.8755 0.0000 -0.0000 2.8284 -11.3419 -0.6662 -4.0709 -0.0000 -0.0000 -13.6938 -24.7332 -4.8549 21.0722 0.0000 -0.0000
 -6.0042 35.4339 -12.1019 3.6842 -4.4625 0.0691 -6.0894 7.0545 -0.6276 3.3305 -3.3441 13.9407 6.5083 7.1289 11.7784 -53.6625 -13.8405 -11.8375 1.3664 0.0000 20.4544 0.0335 3.4295 -0.5595 33.1476 -0.0000 26.2537 -7.6870 -18.4383 -16.5050 -35.1988 -1.2186 12.3153 12.5287 -0.0000 48.0859 0.4535 -1.6246 15.5995 32.8623 0.0000 -24.3270 5.0883 15.9280 -1.0457 -5.0810 0.0000 0.0000 -14.9443 23.4158 -3.1777 20.9261 -0.0000 0.0000 2.8215 -11.3573 -0.6703 -4.0712 -0.0000 -0.0000 -13.6848 -24.7258 -4.8350 21.0706 0.0000 -0.0000
